<svg width="0" height="0">
	<symbol viewBox="0 0 80 80" xmlns="http://www.w3.org/2000/svg" id="logotype">
		<path d="M40.0003 80.0002C17.9658 80.0002 0.000244141 62.0346 0.000244141 40.0002C0.000244141 17.9658 17.9658 0.000183105 40.0003 0.000183105C62.0347 0.000183105 80.0003 17.9658 80.0003 40.0002C80.0629 62.0346 62.0973 80.0002 40.0003 80.0002ZM40.0003 1.81552C18.9674 1.81552 1.81558 18.9673 1.81558 40.0002C1.81558 61.0331 18.9674 78.1849 40.0003 78.1849C61.0331 78.1849 78.1849 61.0331 78.1849 40.0002C78.1849 18.9673 61.0957 1.81552 40.0003 1.81552Z" />
		<path d="M39.819 23.4749C41.1322 23.4369 42.166 22.3416 42.128 21.0284C42.0901 19.7152 40.9947 18.6814 39.6815 18.7193C38.3683 18.7573 37.3345 19.8526 37.3725 21.1658C37.4104 22.479 38.5058 23.5128 39.819 23.4749Z" />
		<path d="M38.4979 23.9752C38.4353 24.5386 38.4353 25.1019 38.3727 25.9157C39.4995 25.2897 40.3759 24.9142 41.0644 24.6638C41.0644 24.3508 41.0019 24.2256 41.0019 23.9752C40.6263 24.163 40.1881 24.2256 39.7499 24.2256C39.3117 24.2256 38.8735 24.163 38.4979 23.9752Z" />
		<path d="M45.3836 39.3742C45.1333 38.1223 44.3821 37.5589 43.8187 37.1207C42.8797 36.3695 41.9408 35.9314 41.127 35.4306C41.1896 32.3007 41.2522 30.2976 41.1896 28.4196C40.188 28.67 39.3743 29.1082 38.3101 29.922C38.3101 31.1739 38.3101 32.1129 38.3101 33.7404C38.1849 33.6152 37.9971 33.5526 37.8719 33.4274C37.1833 32.8641 36.7451 32.3007 36.6825 31.8625C36.62 31.4243 36.6825 30.7983 37.0581 30.235C37.4337 29.6716 38.6857 28.7326 39.6246 28.1692C40.5636 27.6058 41.8782 27.3555 42.6919 27.3555C43.5057 27.3555 44.8829 27.0425 44.7577 26.4791C44.6325 25.9783 42.9423 24.9767 41.8156 25.1645C40.6888 25.3523 39.4995 25.9157 37.1833 27.2303C36.62 27.6058 36.0566 27.9814 35.4306 28.6074C34.8672 29.2334 34.2412 30.0472 34.116 31.2365C33.9908 32.4259 34.5542 33.6152 35.3054 34.3664C36.0566 35.1176 36.9329 35.681 37.8093 36.1818C37.9345 36.2444 38.0597 36.3069 38.2475 36.4321C38.2475 38.1223 38.3727 41.8782 38.3727 42.0033C38.4353 42.0033 40.4384 41.0644 40.7514 40.9392C40.814 39.6872 40.814 38.8735 40.8766 37.8093C41.6904 38.2475 42.5667 38.7483 43.0675 39.3116C43.3179 39.6246 43.3179 39.7498 43.2553 40.0002C43.1301 40.2506 42.7545 40.6262 42.2538 40.8766C41.2522 41.5026 40.0002 41.9408 38.6857 42.5667C38.1223 42.8797 37.3085 43.1301 36.307 44.1317C36.0566 44.3821 35.8062 44.7577 35.681 45.2584C35.5558 45.7592 35.6184 46.1974 35.7436 46.6356C36.0566 47.512 36.6825 48.0753 37.3085 48.5135C37.6841 48.8265 38.1223 49.0769 38.5605 49.3273C38.5605 50.2663 38.6231 51.0174 38.6231 51.8938C39.0613 51.7686 40.3758 51.4556 40.3758 51.4556C40.3758 51.0174 40.3758 50.767 40.4384 50.3289C40.7514 50.4541 41.0018 50.6418 41.3148 50.8296C41.6278 51.0174 41.9408 51.2052 42.1286 51.393C42.2538 51.4556 42.2538 51.5182 42.2538 51.5808C42.2538 51.6434 41.8782 51.706 41.5652 51.8312C41.2522 51.9564 40.8766 52.019 40.4384 52.0816C39.6872 52.2694 38.8735 52.3946 38.1223 52.7076C37.7467 52.8328 37.3085 53.0206 36.9955 53.3962C36.62 53.7091 36.3696 54.2725 36.3696 54.7733C36.4322 55.7123 36.9329 56.4008 37.3711 56.9016C37.8093 57.4024 38.3101 57.778 38.8109 58.1536C38.8735 58.2162 38.9361 58.2162 38.9987 58.2788C39.1865 60.5323 39.3743 61.7843 39.6246 61.7843C39.875 61.7843 40.0002 60.7201 40.1254 58.9674C41.3148 59.6559 42.066 59.9063 42.1286 59.8437C42.1912 59.7185 41.3774 59.2177 40.188 58.2788C40.2506 57.0894 40.3132 55.9627 40.3758 54.2099C40.2506 54.2099 39.1239 54.4603 38.8109 54.5229C38.8735 55.6497 38.9361 56.2757 38.9361 57.152C38.3727 56.5886 37.8093 55.9627 37.5589 55.2115C37.4337 54.6481 37.4963 54.4603 37.9971 54.1473C38.4979 53.8969 39.1865 53.7091 39.875 53.5839C40.6262 53.4587 41.3774 53.3962 42.1912 53.1458C42.6293 53.0206 43.1301 52.958 43.6309 52.2694C43.8813 51.8938 43.8813 51.393 43.7561 51.0174C43.6309 50.6418 43.4431 50.4541 43.2553 50.2663C42.5041 49.5777 41.8156 49.2647 41.1896 48.8265C41.0018 48.7013 40.814 48.6387 40.6262 48.5135C40.6888 47.1364 40.7514 46.1348 40.814 44.6325C40.2506 44.8203 38.9987 45.4462 38.6231 45.6966C38.6231 45.6966 38.6231 46.573 38.6857 47.2616C38.3727 47.0112 38.1223 46.8234 37.9971 46.573C37.6841 46.1974 37.6215 45.8218 37.6841 45.6966C37.7467 45.5088 38.0597 45.1958 38.4979 44.9454C38.8735 44.6951 39.3117 44.5073 39.6872 44.3195C41.127 43.6309 42.6293 43.1927 44.0691 42.1911C44.4447 41.9408 44.8203 41.6278 45.0707 41.127C45.321 40.5636 45.5088 40.0002 45.3836 39.3742Z" />
		<path d="M22.8485 19.9689L21.7218 20.9704L15.3994 17.7779L20.7202 23.7247L19.5309 24.7889L12.5199 16.7764L14.0848 15.3992L21.0332 18.9673L18.4041 11.5808L19.969 10.2036L26.98 18.2161L25.7906 19.3429L20.595 13.2709L22.8485 19.9689Z" />
		<path d="M28.6075 10.0158C30.9236 9.13946 31.9252 10.5166 32.6138 12.3945C32.6764 12.6449 32.739 12.8327 32.8016 13.0831L28.6701 14.6481C29.0457 15.6496 29.6717 16.1504 31.0488 15.6496C31.8626 15.3366 32.5512 14.8985 32.9894 14.4603L33.4902 15.7122C32.8642 16.3382 32.0504 16.7138 31.2992 17.0268C29.1083 17.8406 27.7938 16.839 26.98 14.7107C26.1662 12.4571 26.4792 10.8296 28.6075 10.0158ZM28.2945 13.5213L30.9237 12.5197C30.6107 11.6434 30.2351 10.8296 29.0457 11.2678C28.0442 11.706 27.9816 12.5197 28.2945 13.5213Z" />
		<path d="M39.3744 8.51347L39.124 4.56981L40.689 4.44461L41.3775 15.0862L40.4386 15.1488L40.1256 14.5855C39.5622 15.0862 38.811 15.3992 37.8721 15.4618C35.8063 15.587 34.93 14.2725 34.8048 11.9563C34.6796 9.64023 35.3055 8.20048 37.3713 8.07528C38.185 8.01269 38.8736 8.20048 39.3744 8.51347ZM36.4949 11.8312C36.5575 13.1457 36.8705 14.2099 38.2476 14.0847C38.9988 14.0221 39.4996 13.7717 39.75 13.5839L39.4996 9.70283C39.1866 9.57763 38.6858 9.32724 37.9347 9.38984C36.5575 9.45243 36.3697 10.5792 36.4949 11.8312Z" />
		<path d="M43.631 13.7091L44.5074 8.45089L46.0724 8.70128L45.196 13.9595C45.1334 14.3351 45.2586 14.5229 45.6968 14.5855L45.509 15.8374C45.509 15.8374 45.3838 15.8374 45.196 15.8374C43.8814 15.6496 43.4433 14.8985 43.631 13.7091ZM45.822 5.44619C46.3853 5.50879 46.7609 6.07217 46.6983 6.63555C46.6357 7.19893 46.0724 7.57452 45.509 7.51192C44.9456 7.44932 44.57 6.88594 44.6326 6.32256C44.6952 5.75918 45.2586 5.3836 45.822 5.44619Z" />
		<path d="M50.4541 16.0878C51.2053 16.4008 51.7687 16.4634 52.3321 16.4634L51.8313 17.7153C51.2053 17.7153 50.5793 17.5902 49.8908 17.3398C47.5746 16.4008 47.3869 14.7733 48.2006 12.7075C49.0144 10.6418 50.2664 9.51503 52.5825 10.454C53.2711 10.7044 53.8344 11.08 54.2726 11.5182L53.7718 12.7701C53.3962 12.3945 52.8955 12.0815 52.1443 11.7686C50.8923 11.2678 50.1412 12.0189 49.6404 13.2709C49.1396 14.5855 49.2022 15.587 50.4541 16.0878Z" />
		<path d="M58.5919 15.4618C57.8407 14.8984 57.1521 14.648 56.5887 14.4603L57.4025 13.3335C57.9659 13.4587 58.8422 13.8969 59.5308 14.3977C61.4088 15.7748 61.221 16.9016 60.3446 18.1535L57.5277 21.972L56.7765 21.4086L56.9017 20.7826C56.1505 20.8452 55.3368 20.5322 54.7108 20.0941C53.271 18.9673 53.4588 17.7153 54.0848 16.839C55.0238 15.587 56.2131 15.7122 57.5277 16.526L58.9048 17.4024L59.0926 17.0894C59.5934 16.4634 59.4682 16.0878 58.5919 15.4618ZM56.9643 17.465C56.3383 17.0894 55.8375 17.0894 55.3994 17.6527C55.0864 18.0909 54.9612 18.6543 55.6498 19.1551C56.1505 19.5307 56.6513 19.6559 57.1521 19.7185L58.2789 18.2161L56.9643 17.465Z" />
		<path d="M60.0942 22.285L66.8548 16.4634L67.9189 17.6528L61.0958 23.4744C60.7828 23.7248 60.7828 23.9125 61.0958 24.2881L60.0942 25.1019C60.0942 25.1019 59.969 25.0393 59.8438 24.9141C59.03 23.9125 59.1552 23.0988 60.0942 22.285Z" />
		<path d="M28.1067 61.7216C29.1708 62.4102 29.6716 62.9736 29.9846 63.4118L29.1708 64.7263C28.67 64.0378 28.2319 63.537 27.4181 63.0362C25.6653 61.972 24.2882 62.7232 22.911 64.9141C21.5339 67.105 21.4713 68.7326 23.224 69.7968C24.0378 70.2975 24.6638 70.4853 25.5401 70.6731L24.7264 71.9877C24.163 71.9251 23.4118 71.7373 22.3477 71.0487C19.656 69.3586 19.656 67.0424 21.5339 64.0377C23.2866 61.0957 25.415 60.0315 28.1067 61.7216Z" />
		<path d="M29.4838 72.238L32.0503 63.7247L33.5527 64.1629L31.0487 72.6762C30.9236 73.0518 31.0487 73.2396 31.4869 73.3648L31.1113 74.6168C31.1113 74.6168 30.9862 74.6168 30.7984 74.5542C29.5464 74.1786 29.1708 73.3648 29.4838 72.238Z" />
		<path d="M35.1177 73.5526L35.7436 68.2318L37.3086 68.4196L36.6826 73.7404C36.62 74.116 36.7452 74.3038 37.1834 74.3664L37.0582 75.6183C37.0582 75.6183 36.933 75.6183 36.7452 75.6183C35.4932 75.4305 34.9925 74.742 35.1177 73.5526ZM36.933 65.2271C37.4964 65.2897 37.9346 65.7905 37.8094 66.3539C37.7468 66.9173 37.246 67.3554 36.6826 67.2302C36.1192 67.1676 35.681 66.6669 35.8062 66.1035C35.8688 65.5401 36.3696 65.1645 36.933 65.2271Z" />
		<path d="M45.6967 75.2428L45.1333 70.4227C45.0707 69.7342 44.6325 69.4212 43.8813 69.5464C43.1302 69.609 42.692 69.9219 42.3164 70.1723L43.005 75.6183L41.44 75.8061L40.5637 68.7326L41.5026 68.6074L41.8156 69.1708C42.5042 68.6074 43.2554 68.2318 44.0065 68.1692C45.8219 67.9814 46.5105 68.7326 46.6982 70.1097L47.3242 75.055L45.6967 75.2428Z" />
		<path d="M48.8265 63.7873C49.3273 63.5995 49.9533 63.8499 50.1411 64.3507C50.3289 64.8515 50.0785 65.4774 49.5777 65.6652C49.0769 65.853 48.4509 65.6026 48.2631 65.1019C48.0127 64.6011 48.2631 64.0377 48.8265 63.7873ZM51.1426 71.9876L49.2021 66.9798L50.7045 66.4164L52.645 71.4242C52.7702 71.7998 52.958 71.8624 53.3962 71.7372L53.8343 72.9266C53.8343 72.9266 53.7091 72.9892 53.584 73.0518C52.332 73.5526 51.5808 73.177 51.1426 71.9876Z" />
		<path d="M59.5308 68.2318C60.2194 67.7936 60.5949 67.3554 60.9079 66.9172L61.6591 68.044C61.3461 68.5447 60.8453 69.0455 60.2194 69.4211C58.1536 70.7983 56.6513 69.9845 55.3993 68.1692C54.1474 66.3538 53.9596 64.6637 56.0253 63.2239C56.6513 62.7857 57.2773 62.5354 57.8406 62.4102L58.5918 63.5369C58.0284 63.6621 57.5276 63.8499 56.8391 64.2881C55.7123 65.0393 55.9001 66.0408 56.6513 67.2302C57.4024 68.4195 58.3414 68.9829 59.5308 68.2318Z" />
	</symbol>
	<symbol viewBox="0 0 16 41" xmlns="http://www.w3.org/2000/svg" id="rdv">
		<path d="M15 40.196L15 37.886L9.192 37.886L9.192 36.522C9.28 36.126 9.896 35.598 11.15 34.894L15 32.672L15 30.01L10.732 32.496C9.434 33.266 8.642 33.838 8.4 34.278L8.356 34.278C7.806 32.54 6.53 31.418 4.572 31.418C3.164 31.418 1.888 31.99 1.162 33.42C0.744 34.168 0.501999 35.158 0.501999 36.566L0.501999 40.196L15 40.196ZM7.278 37.886L2.394 37.886L2.394 36.632C2.394 35.73 2.592 35.158 2.9 34.762C3.296 34.124 4 33.816 4.814 33.816C5.782 33.816 6.486 34.256 6.882 34.916C7.146 35.4 7.278 35.928 7.278 36.654L7.278 37.886ZM15 27.5847L15 23.6027C15 18.4987 11.964 15.5727 7.652 15.5727C3.428 15.5727 0.501998 18.2787 0.501998 23.4267L0.501999 27.5847L15 27.5847ZM13.042 25.2747L2.46 25.2747L2.46 23.6247C2.46 19.8627 4.55 18.0367 7.674 18.0367C10.578 18.0367 13.042 19.5107 13.042 23.5807L13.042 25.2747ZM15.088 8.38555L15.088 6.51555L0.501997 0.685546L0.501997 3.17155L8.664 6.31755C9.896 6.80155 10.864 7.13155 11.722 7.41755L11.722 7.46155C10.82 7.76955 9.852 8.09955 8.708 8.53955L0.501998 11.7075L0.501998 14.2155L15.088 8.38555Z" fill="#222222"/>
	</symbol>
	<symbol viewBox="0 0 19 26" xmlns="http://www.w3.org/2000/svg" id="mark-map">
		<path d="M9.49998 24C7.96627 22.6236 6.54465 21.1147 5.24999 19.489C3.30714 17.0477 1 13.4118 1 9.94718C0.999158 8.17776 1.49726 6.44784 2.43127 4.97635C3.36528 3.50487 4.69321 2.35797 6.247 1.6808C7.80079 1.00364 9.5106 0.82664 11.16 1.17221C12.8095 1.51779 14.3244 2.3704 15.5131 3.62214C16.3045 4.45108 16.9318 5.43692 17.3587 6.52261C17.7855 7.6083 18.0035 8.77228 18 9.94718C18 13.4118 15.6928 17.0477 13.75 19.489C12.4553 21.1147 11.0337 22.6236 9.49998 24ZM9.49998 6.1146C8.53384 6.1146 7.60726 6.51839 6.9241 7.23714C6.24093 7.95589 5.85713 8.93072 5.85713 9.94718C5.85713 10.9636 6.24093 11.9385 6.9241 12.6572C7.60726 13.376 8.53384 13.7798 9.49998 13.7798C10.4661 13.7798 11.3927 13.376 12.0759 12.6572C12.759 11.9385 13.1428 10.9636 13.1428 9.94718C13.1428 8.93072 12.759 7.95589 12.0759 7.23714C11.3927 6.51839 10.4661 6.1146 9.49998 6.1146Z" stroke="#222222" stroke-width="2"/>
	</symbol>
	<symbol viewBox="0 0 15 30" xmlns="http://www.w3.org/2000/svg" id="telephone">
		<path d="M13.0849 26.4562L12.7626 19.6791C12.7474 19.3588 12.6082 19.0569 12.3745 18.8373C12.1409 18.6177 11.8311 18.4974 11.5104 18.5019L7.27173 18.5613C6.8648 17.9623 6.16883 16.6358 6.1662 14.5566C6.16707 12.474 6.86565 11.1449 7.2717 10.552L11.5095 10.6088C11.8302 10.6136 12.1403 10.4935 12.374 10.2738C12.6077 10.0541 12.7467 9.75207 12.7617 9.43165L13.0839 2.65622C13.0994 2.33522 12.9891 2.02084 12.7764 1.77986C12.5638 1.53887 12.2656 1.39025 11.9452 1.36558L8.42521 1.09574C8.12272 1.09628 7.83094 1.20783 7.60524 1.40922C7.37384 1.61443 1.95281 6.53596 1.9511 14.5575C1.952 21.553 6.07805 26.1908 7.28487 27.3976C7.46126 27.574 7.57478 27.677 7.60535 27.7041C7.83082 27.9056 8.12288 28.0167 8.42532 28.0158L11.9453 27.7443C12.2658 27.7207 12.5643 27.5728 12.7773 27.3322C12.9902 27.0915 13.1006 26.7772 13.0849 26.4562V26.4562Z" stroke="#222222" stroke-width="2"/>
	</symbol>
	<symbol viewBox="0 0 8 14" xmlns="http://www.w3.org/2000/svg" id="slider-arrow">
		<path d="M0.279447 1.4847C0.0717812 1.88026 0.15168 2.36557 0.47519 2.67367L4.25749 6.27587C4.67129 6.66996 4.67129 7.33006 4.2575 7.72415L0.47519 11.3263C0.151679 11.6344 0.0717816 12.1198 0.279447 12.5153L0.330638 12.6128C0.639322 13.2008 1.42481 13.3301 1.90569 12.8721L7.31107 7.72415C7.72486 7.33006 7.72486 6.66996 7.31107 6.27587L1.90569 1.12789C1.42481 0.669911 0.639321 0.799228 0.330637 1.3872L0.279447 1.4847Z"/>
	</symbol>
	<symbol viewBox="0 0 28 29" xmlns="http://www.w3.org/2000/svg" id="inst">
		<path d="M13.9962 9.66461C11.4255 9.66461 9.32767 11.8375 9.32767 14.5C9.32767 17.1625 11.4255 19.3354 13.9962 19.3354C16.5669 19.3354 18.6648 17.1625 18.6648 14.5C18.6648 11.8375 16.5669 9.66461 13.9962 9.66461ZM27.9984 14.5C27.9984 12.4976 28.0159 10.5134 27.9074 8.51471C27.7988 6.19314 27.2875 4.13275 25.6484 2.4351C24.0058 0.733824 22.02 0.207844 19.7785 0.0953926C17.8453 -0.0170583 15.9295 0.00107896 13.9997 0.00107896C12.0665 0.00107896 10.1507 -0.0170583 8.22094 0.0953926C5.97947 0.207844 3.99016 0.737451 2.35109 2.4351C0.708507 4.13637 0.200673 6.19314 0.0921015 8.51471C-0.0164698 10.5171 0.00104174 12.5013 0.00104174 14.5C0.00104174 16.4987 -0.0164698 18.4866 0.0921015 20.4853C0.200673 22.8069 0.712009 24.8673 2.35109 26.5649C3.99367 28.2662 5.97947 28.7922 8.22094 28.9046C10.1542 29.0171 12.07 28.9989 13.9997 28.9989C15.933 28.9989 17.8488 29.0171 19.7785 28.9046C22.02 28.7922 24.0093 28.2625 25.6484 26.5649C27.291 24.8636 27.7988 22.8069 27.9074 20.4853C28.0195 18.4866 27.9984 16.5024 27.9984 14.5ZM13.9962 21.9399C10.0211 21.9399 6.81302 18.6172 6.81302 14.5C6.81302 10.3828 10.0211 7.0601 13.9962 7.0601C17.9713 7.0601 21.1795 10.3828 21.1795 14.5C21.1795 18.6172 17.9713 21.9399 13.9962 21.9399ZM21.4736 8.49294C20.5455 8.49294 19.796 7.71667 19.796 6.75539C19.796 5.79412 20.5455 5.01784 21.4736 5.01784C22.4018 5.01784 23.1513 5.79412 23.1513 6.75539C23.1515 6.98365 23.1083 7.20972 23.0241 7.42066C22.9399 7.6316 22.8163 7.82326 22.6605 7.98466C22.5047 8.14607 22.3196 8.27404 22.116 8.36126C21.9123 8.44848 21.694 8.49323 21.4736 8.49294Z"/>
	</symbol>
	<symbol viewBox="0 0 230 230" xmlns="http://www.w3.org/2000/svg" id="shield">
		<path d="M69.1572 161.294L69.7952 163.12C68.4605 163.853 66.9865 164.22 65.3732 164.22C63.1292 164.22 61.3692 163.545 60.0932 162.196C58.8172 160.847 58.1792 159.087 58.1792 156.916C58.1792 154.775 58.8758 152.985 60.2692 151.548C61.6625 150.096 63.4738 149.37 65.7032 149.37C67.1552 149.37 68.3945 149.612 69.4212 150.096V152.252C68.2625 151.636 67.0378 151.328 65.7472 151.328C64.1778 151.328 62.9312 151.856 62.0072 152.912C61.0978 153.968 60.6432 155.281 60.6432 156.85C60.6432 158.463 61.0905 159.769 61.9852 160.766C62.8945 161.763 64.1118 162.262 65.6372 162.262C66.8398 162.262 68.0132 161.939 69.1572 161.294ZM79.817 162.68C78.8783 163.707 77.661 164.22 76.165 164.22C74.669 164.22 73.4443 163.707 72.491 162.68C71.5523 161.639 71.083 160.333 71.083 158.764C71.083 157.195 71.5523 155.897 72.491 154.87C73.4297 153.843 74.6543 153.33 76.165 153.33C77.661 153.33 78.8783 153.843 79.817 154.87C80.7557 155.897 81.225 157.195 81.225 158.764C81.225 160.333 80.7557 161.639 79.817 162.68ZM74.163 161.36C74.647 162.02 75.3143 162.35 76.165 162.35C77.0157 162.35 77.6757 162.02 78.145 161.36C78.629 160.7 78.871 159.835 78.871 158.764C78.871 157.708 78.629 156.85 78.145 156.19C77.6757 155.53 77.0157 155.2 76.165 155.2C75.3143 155.2 74.647 155.53 74.163 156.19C73.679 156.85 73.437 157.708 73.437 158.764C73.437 159.835 73.679 160.7 74.163 161.36ZM83.341 164V153.594H85.255L85.497 154.826C86.729 153.829 87.9096 153.33 89.039 153.33C90.3443 153.33 91.2536 153.887 91.767 155.002C93.0576 153.887 94.319 153.33 95.551 153.33C96.519 153.33 97.311 153.638 97.927 154.254C98.5576 154.855 98.873 155.794 98.873 157.07V164H96.585V157.708C96.585 156.945 96.4676 156.359 96.233 155.948C96.013 155.537 95.5803 155.332 94.935 155.332C94.1136 155.332 93.2116 155.735 92.229 156.542C92.2436 156.63 92.251 156.791 92.251 157.026V164H89.963V157.73C89.963 156.967 89.8456 156.381 89.611 155.97C89.391 155.545 88.9656 155.332 88.335 155.332C87.499 155.332 86.597 155.735 85.629 156.542V164H83.341ZM101.452 169.214V153.99C102.699 153.55 103.953 153.33 105.214 153.33C106.989 153.33 108.353 153.814 109.306 154.782C110.274 155.735 110.758 157.063 110.758 158.764C110.758 160.392 110.26 161.712 109.262 162.724C108.28 163.721 106.996 164.22 105.412 164.22C104.84 164.22 104.283 164.125 103.74 163.934V169.214H101.452ZM103.74 161.976C104.224 162.196 104.73 162.306 105.258 162.306C106.27 162.306 107.048 161.991 107.59 161.36C108.133 160.715 108.404 159.842 108.404 158.742C108.404 157.583 108.111 156.711 107.524 156.124C106.938 155.537 106.138 155.244 105.126 155.244C104.642 155.244 104.18 155.31 103.74 155.442V161.976ZM121.397 159.358H114.709C114.738 160.267 115.024 161.001 115.567 161.558C116.124 162.115 116.872 162.394 117.811 162.394C118.72 162.394 119.593 162.159 120.429 161.69L121.111 163.252C120.128 163.897 118.947 164.22 117.569 164.22C115.853 164.22 114.555 163.699 113.675 162.658C112.809 161.617 112.377 160.319 112.377 158.764C112.377 157.165 112.787 155.86 113.609 154.848C114.43 153.836 115.537 153.33 116.931 153.33C118.339 153.33 119.431 153.821 120.209 154.804C121.001 155.772 121.397 157.107 121.397 158.808V159.358ZM114.687 157.73H119.065C119.035 156.997 118.837 156.381 118.471 155.882C118.119 155.369 117.598 155.112 116.909 155.112C116.234 155.112 115.699 155.369 115.303 155.882C114.907 156.381 114.701 156.997 114.687 157.73ZM115.787 152.318L117.062 149.084H119.571L117.525 152.318H115.787ZM127.191 164.22C126.326 164.22 125.644 163.985 125.145 163.516C124.661 163.047 124.419 162.387 124.419 161.536V155.398H122.593V153.594H124.419V151.196L126.707 150.492V153.594H129.831L129.259 155.398H126.707V161.03C126.707 161.91 127.052 162.35 127.741 162.35C128.313 162.35 128.856 162.174 129.369 161.822L130.095 163.406C129.318 163.949 128.35 164.22 127.191 164.22ZM140.238 159.358H133.55C133.58 160.267 133.866 161.001 134.408 161.558C134.966 162.115 135.714 162.394 136.652 162.394C137.562 162.394 138.434 162.159 139.27 161.69L139.952 163.252C138.97 163.897 137.789 164.22 136.41 164.22C134.694 164.22 133.396 163.699 132.516 162.658C131.651 161.617 131.218 160.319 131.218 158.764C131.218 157.165 131.629 155.86 132.45 154.848C133.272 153.836 134.379 153.33 135.772 153.33C137.18 153.33 138.273 153.821 139.05 154.804C139.842 155.772 140.238 157.107 140.238 158.808V159.358ZM133.528 157.73H137.906C137.877 156.997 137.679 156.381 137.312 155.882C136.96 155.369 136.44 155.112 135.75 155.112C135.076 155.112 134.54 155.369 134.144 155.882C133.748 156.381 133.543 156.997 133.528 157.73ZM142.337 164V153.594H144.273L144.515 154.826C145.732 153.829 146.928 153.33 148.101 153.33C149.04 153.33 149.817 153.623 150.433 154.21C151.049 154.797 151.357 155.75 151.357 157.07V164H149.069V157.796C149.069 157.019 148.944 156.417 148.695 155.992C148.46 155.552 148.02 155.332 147.375 155.332C146.539 155.332 145.622 155.75 144.625 156.586V164H142.337ZM158.603 164.22C156.989 164.22 155.721 163.721 154.797 162.724C153.887 161.712 153.433 160.429 153.433 158.874C153.433 157.29 153.939 155.97 154.951 154.914C155.977 153.858 157.268 153.33 158.823 153.33C159.893 153.33 160.81 153.557 161.573 154.012V155.97C160.795 155.457 159.952 155.2 159.043 155.2C158.045 155.2 157.253 155.537 156.667 156.212C156.08 156.887 155.787 157.752 155.787 158.808C155.787 159.923 156.065 160.795 156.623 161.426C157.195 162.042 157.957 162.35 158.911 162.35C159.688 162.35 160.509 162.115 161.375 161.646L162.035 163.23C161.081 163.89 159.937 164.22 158.603 164.22ZM172.164 159.358H165.476C165.505 160.267 165.791 161.001 166.334 161.558C166.891 162.115 167.639 162.394 168.578 162.394C169.487 162.394 170.36 162.159 171.196 161.69L171.878 163.252C170.895 163.897 169.715 164.22 168.336 164.22C166.62 164.22 165.322 163.699 164.442 162.658C163.577 161.617 163.144 160.319 163.144 158.764C163.144 157.165 163.555 155.86 164.376 154.848C165.197 153.836 166.305 153.33 167.698 153.33C169.106 153.33 170.199 153.821 170.976 154.804C171.768 155.772 172.164 157.107 172.164 158.808V159.358ZM165.454 157.73H169.832C169.803 156.997 169.605 156.381 169.238 155.882C168.886 155.369 168.365 155.112 167.676 155.112C167.001 155.112 166.466 155.369 166.07 155.882C165.674 156.381 165.469 156.997 165.454 157.73Z" />
		<path fill-rule="evenodd" clip-rule="evenodd" d="M114.16 65.3446C111.84 67.0216 109.405 68.371 107.29 69.1526C104.141 70.3162 100.244 70.9305 96.8815 70.7932C96.0245 70.7583 95.8721 70.7775 95.5885 70.9566C94.9144 71.3823 94.944 70.7436 95.0747 82.0922C95.1394 87.7046 95.2335 93.0698 95.2837 94.015C95.4332 96.8288 95.7524 98.296 96.5917 100.029C98.1558 103.257 101.421 106.189 109.462 111.585C113.951 114.597 114.604 115 114.995 115C115.415 115 115.724 114.812 119.955 111.976C125.74 108.098 128.041 106.355 130.336 104.115C132.758 101.751 133.945 99.6203 134.433 96.7618C134.732 95.0177 134.801 92.9557 134.926 82.0922C135.056 70.7438 135.085 71.3822 134.411 70.9566C134.128 70.7775 133.975 70.7583 133.118 70.7932C131.664 70.8526 129.097 70.6961 127.727 70.4646C123.337 69.7228 119.784 68.1925 115.839 65.3444C115.203 64.8852 114.796 64.8852 114.16 65.3446ZM115.842 68.2624C119.786 70.983 124.619 72.667 129.757 73.1117C130.427 73.1698 130.993 73.2341 131.013 73.2546C131.043 73.2844 115.227 95.4496 115.011 95.6804C114.978 95.7154 113.119 93.3771 110.88 90.4842C107.795 86.4986 106.727 85.1858 106.474 85.0651C105.562 84.6301 104.481 85.6786 104.923 86.5693C105.137 87.0001 114.212 98.68 114.42 98.7918C114.518 98.8446 114.803 98.8879 115.052 98.8879C115.436 98.8879 115.552 98.8395 115.811 98.5692C115.98 98.3939 119.811 93.0859 124.326 86.7736L132.535 75.2966L132.566 77.254C132.611 80.2055 132.399 93.4972 132.285 94.8354C132.001 98.1582 131.152 99.9565 128.722 102.376C127.611 103.483 125.946 104.854 123.829 106.405C122.234 107.573 115.148 112.363 115.015 112.363C114.966 112.363 113.61 111.486 112.001 110.414C106.042 106.443 103.155 104.272 101.154 102.259C98.8441 99.9342 98.0001 98.1131 97.7139 94.8354C97.5962 93.4865 97.417 82.806 97.4163 77.0876L97.4159 73.2061L98.3145 73.2052C103.675 73.2002 109.821 71.2905 114.068 68.3091C114.501 68.0058 114.905 67.7532 114.968 67.7477C115.03 67.7422 115.424 67.9738 115.842 68.2624Z" />
	</symbol>
	<symbol viewBox="0 0 230 230" xmlns="http://www.w3.org/2000/svg" id="hands">
		<path d="M63.4002 145H65.8202L67.2062 141.282H72.5742L74.0042 145H76.4902L70.7482 130.436H68.9662L63.4002 145ZM67.8882 139.39L69.0762 136.09C69.5162 134.924 69.7362 134.264 69.8682 133.758H69.9122C70.0662 134.242 70.2862 134.902 70.6822 136.09L71.8702 139.39H67.8882ZM82.6983 145.22C84.0623 145.22 85.3383 144.78 86.1303 144.23L85.4703 142.646C84.7443 143.042 84.0183 143.35 83.0063 143.35C81.1143 143.35 79.8823 142.074 79.8823 139.808C79.8823 137.74 81.1143 136.2 83.1383 136.2C84.1503 136.2 84.9423 136.486 85.6683 136.97V135.012C85.0743 134.66 84.1503 134.33 82.9183 134.33C79.7943 134.33 77.5283 136.706 77.5283 139.874C77.5283 142.866 79.3763 145.22 82.6983 145.22ZM92.3878 145.22C93.7518 145.22 95.0278 144.78 95.8198 144.23L95.1598 142.646C94.4338 143.042 93.7078 143.35 92.6958 143.35C90.8038 143.35 89.5718 142.074 89.5718 139.808C89.5718 137.74 90.8038 136.2 92.8278 136.2C93.8398 136.2 94.6318 136.486 95.3578 136.97V135.012C94.7638 134.66 93.8398 134.33 92.6078 134.33C89.4838 134.33 87.2178 136.706 87.2178 139.874C87.2178 142.866 89.0658 145.22 92.3878 145.22ZM101.989 145.22C105.025 145.22 107.049 142.866 107.049 139.764C107.049 136.662 105.025 134.33 101.989 134.33C98.9312 134.33 96.9072 136.662 96.9072 139.764C96.9072 142.866 98.9532 145.22 101.989 145.22ZM101.989 143.35C100.251 143.35 99.2612 141.854 99.2612 139.764C99.2612 137.696 100.251 136.2 101.989 136.2C103.727 136.2 104.695 137.696 104.695 139.764C104.695 141.854 103.727 143.35 101.989 143.35ZM109.165 145H111.453V137.542C112.267 136.86 113.213 136.332 114.159 136.332C115.523 136.332 115.787 137.41 115.787 138.73V145H118.075V138.026C118.075 137.85 118.075 137.674 118.053 137.542C118.889 136.86 119.835 136.332 120.759 136.332C122.145 136.332 122.409 137.388 122.409 138.708V145H124.697V138.07C124.697 135.364 123.157 134.33 121.375 134.33C120.165 134.33 118.845 134.924 117.591 136.002C117.085 134.902 116.095 134.33 114.863 134.33C113.565 134.33 112.377 134.968 111.321 135.826L111.079 134.594H109.165V145ZM127.277 150.214H129.565V144.934C130.071 145.11 130.643 145.22 131.237 145.22C134.405 145.22 136.583 143.02 136.583 139.764C136.583 136.398 134.625 134.33 131.039 134.33C129.697 134.33 128.399 134.594 127.277 134.99V150.214ZM129.565 142.976V136.442C130.005 136.31 130.445 136.244 130.951 136.244C132.909 136.244 134.229 137.344 134.229 139.742C134.229 141.898 133.151 143.306 131.083 143.306C130.489 143.306 130.049 143.196 129.565 142.976ZM144.955 145H146.913C146.759 144.45 146.715 143.548 146.715 142.052V138.048C146.715 135.518 145.263 134.33 142.689 134.33C141.325 134.33 140.005 134.66 138.773 135.364L139.565 136.882C140.291 136.464 141.237 136.112 142.337 136.112C143.569 136.112 144.427 136.684 144.427 138.048V138.488L142.557 138.554C141.501 138.598 140.621 138.73 139.895 139.104C138.839 139.632 138.157 140.534 138.157 141.92C138.157 143.922 139.587 145.22 141.545 145.22C142.843 145.22 143.811 144.67 144.581 143.944L144.955 145ZM144.427 140.05V142.404C144.009 142.778 143.217 143.394 142.161 143.394C141.127 143.394 140.467 142.778 140.467 141.788C140.467 141.194 140.709 140.732 141.193 140.468C141.589 140.248 142.117 140.138 142.865 140.116L144.427 140.05ZM153.104 150.214C156.536 150.214 158.428 148.762 158.428 146.848C158.428 142.954 151.586 144.714 151.586 142.778C151.586 142.514 151.674 142.25 151.96 141.876C152.312 142.008 152.774 142.074 153.258 142.074C155.744 142.074 157.46 140.556 157.46 138.246C157.46 137.3 157.13 136.398 156.47 135.716C156.712 135.562 157.042 135.496 157.306 135.496C157.526 135.496 157.79 135.54 158.032 135.584L158.494 133.912C158.362 133.89 158.076 133.846 157.834 133.846C156.668 133.846 155.986 134.198 155.436 134.748C155.348 134.814 155.304 134.836 155.194 134.77C154.754 134.55 154.072 134.33 153.148 134.33C150.508 134.33 149.056 136.156 149.056 138.136C149.056 139.522 149.672 140.688 150.75 141.326C149.87 141.986 149.54 142.734 149.54 143.328C149.54 143.856 149.804 144.362 150.244 144.604C149.078 145.132 148.352 146.056 148.352 147.178C148.352 149.004 150.134 150.214 153.104 150.214ZM153.368 148.564C151.586 148.564 150.42 147.882 150.42 146.782C150.42 145.99 151.058 145.484 151.454 145.22C153.038 145.792 156.206 145.462 156.206 147.09C156.206 147.926 155.15 148.564 153.368 148.564ZM153.258 140.292C151.982 140.292 151.256 139.368 151.256 138.18C151.256 136.86 152.07 136.112 153.214 136.112C154.468 136.112 155.26 137.058 155.26 138.202C155.26 139.566 154.38 140.292 153.258 140.292ZM160.015 140.512H165.713V138.576H160.015V140.512ZM80.9025 177H83.1905V169.586C84.0265 168.882 84.9725 168.332 85.9405 168.332C87.3265 168.332 87.6345 169.432 87.6345 170.796V177H89.9225V170.07C89.9225 167.21 88.3165 166.33 86.6665 166.33C85.3685 166.33 84.1805 166.924 83.0805 167.826L82.8385 166.594H80.9025V177ZM101.04 172.358V171.808C101.04 168.442 99.4121 166.33 96.5741 166.33C93.7581 166.33 92.0201 168.618 92.0201 171.764C92.0201 174.646 93.5821 177.22 97.2121 177.22C98.4441 177.22 99.7421 176.912 100.754 176.252L100.072 174.69C99.3241 175.108 98.4881 175.394 97.4541 175.394C95.5621 175.394 94.3961 174.14 94.3521 172.358H101.04ZM94.3301 170.73C94.3521 169.322 95.1661 168.112 96.5521 168.112C98.0261 168.112 98.6641 169.41 98.7081 170.73H94.3301ZM103.139 177H105.427V169.542C106.241 168.86 107.187 168.332 108.133 168.332C109.497 168.332 109.761 169.41 109.761 170.73V177H112.049V170.026C112.049 169.85 112.049 169.674 112.027 169.542C112.863 168.86 113.809 168.332 114.733 168.332C116.119 168.332 116.383 169.388 116.383 170.708V177H118.671V170.07C118.671 167.364 117.131 166.33 115.349 166.33C114.139 166.33 112.819 166.924 111.565 168.002C111.059 166.902 110.069 166.33 108.837 166.33C107.539 166.33 106.351 166.968 105.295 167.826L105.053 166.594H103.139V177ZM129.786 172.358V171.808C129.786 168.442 128.158 166.33 125.32 166.33C122.504 166.33 120.766 168.618 120.766 171.764C120.766 174.646 122.328 177.22 125.958 177.22C127.19 177.22 128.488 176.912 129.5 176.252L128.818 174.69C128.07 175.108 127.234 175.394 126.2 175.394C124.308 175.394 123.142 174.14 123.098 172.358H129.786ZM123.076 170.73C123.098 169.322 123.912 168.112 125.298 168.112C126.772 168.112 127.41 169.41 127.454 170.73H123.076ZM131.885 177H134.173V169.586C135.009 168.882 135.955 168.332 136.923 168.332C138.309 168.332 138.617 169.432 138.617 170.796V177H140.905V170.07C140.905 167.21 139.299 166.33 137.649 166.33C136.351 166.33 135.163 166.924 134.063 167.826L133.821 166.594H131.885V177ZM147.182 177.22C148.216 177.22 149.36 176.912 150.086 176.406L149.36 174.822C148.942 175.108 148.37 175.35 147.732 175.35C147.05 175.35 146.698 174.976 146.698 174.03V168.398H149.25L149.822 166.594H146.698V163.492L144.41 164.196V166.594H142.584V168.398H144.41V174.536C144.41 176.23 145.444 177.22 147.182 177.22Z"/>
		<path fill-rule="evenodd" clip-rule="evenodd" d="M128.178 51.7851L126.408 53.5704L122.74 54.3225C120.655 54.7501 118.746 55.2062 118.317 55.3793C116.948 55.9312 107.306 61.2087 106.872 61.6432C106.307 62.2093 106.048 62.8377 106.045 63.6501C106.041 64.9764 106.556 65.8648 107.654 66.4207C108.5 66.8488 109.021 66.8101 112.064 66.0931C113.526 65.7488 114.733 65.4786 114.747 65.4928C114.761 65.5069 112.165 68.1623 108.978 71.394C105.791 74.6255 103.212 77.1656 103.246 77.0388C103.643 75.5614 104.454 71.6181 104.453 71.1667C104.451 69.9379 103.532 68.7338 102.325 68.3773C101.336 68.0851 100.226 68.3957 99.4854 69.1725C99.1793 69.4934 95.6959 76.0031 94.073 79.2872C93.2867 80.8782 93.0287 81.7692 92.2621 85.5397L91.5345 89.119L89.7669 90.9277C87.9184 92.8192 87.7997 93.0135 88.1669 93.546C88.3957 93.878 88.8405 93.9723 89.2202 93.7695C89.7047 93.5105 93.0798 89.9896 93.1551 89.6646C93.1918 89.506 93.5284 87.827 93.903 85.9334C94.2774 84.0398 94.7137 82.0941 94.8722 81.6095C95.1997 80.6086 100.244 70.864 100.683 70.3856C100.84 70.2143 101.105 70.0435 101.273 70.006C101.867 69.8734 102.68 70.389 102.808 70.9799C102.85 71.1745 102.509 72.9283 101.898 75.6557L100.922 80.0201L101.139 80.3166C101.28 80.5091 101.488 80.6264 101.733 80.6508C102.094 80.6868 102.366 80.4286 108.077 74.6382C111.358 71.3106 114.155 68.5307 114.291 68.4606C114.608 68.2982 115.26 68.2971 115.608 68.4584C115.993 68.6366 116.256 69.1531 116.256 69.7298V70.2258L112.058 74.5021C108.283 78.3464 107.859 78.8157 107.859 79.1482C107.859 79.6304 108.204 79.979 108.682 79.979C109.017 79.979 109.491 79.5326 113.817 75.1357C117.106 71.7928 118.697 70.2541 118.952 70.1686C119.985 69.8221 120.971 70.7688 120.674 71.8213C120.599 72.0888 119.231 73.5534 115.746 77.0974C110.615 82.3165 110.642 82.2818 111.154 82.8398C111.375 83.0814 111.572 83.1456 111.944 83.0975C112.038 83.0854 113.953 81.2143 116.2 78.9395C118.447 76.6646 120.429 74.7485 120.604 74.6815C121.817 74.2191 122.935 75.4653 122.335 76.6122C122.245 76.7834 120.356 78.7652 118.136 81.0162C114.482 84.7217 114.1 85.1443 114.1 85.4842C114.1 85.968 114.443 86.3208 114.914 86.3208C115.231 86.3208 115.558 86.035 117.618 83.957L119.962 81.5933H120.504C120.968 81.5933 121.1 81.649 121.431 81.9853C121.746 82.3052 121.817 82.4655 121.817 82.8559C121.817 83.119 121.744 83.4744 121.655 83.6457C121.413 84.1099 108.822 96.8184 108.012 97.4163C107.164 98.0415 105.865 98.6839 104.084 99.3584L102.749 99.8641L100.764 101.892C99.3828 103.303 98.7801 103.997 98.7801 104.177C98.7801 104.538 99.2704 105 99.6532 105C99.9091 105 100.314 104.653 101.786 103.172L103.603 101.344L105.078 100.794C106.967 100.089 108.018 99.5354 109.22 98.6102C110.518 97.6113 135.455 72.2375 136.086 71.2736C136.734 70.2828 137.199 69.3042 137.836 67.5885L138.394 66.0849L140.08 64.3553C141.007 63.4041 141.822 62.5124 141.891 62.374C142.201 61.7532 141.816 61.0692 141.157 61.0692C140.875 61.0692 140.518 61.381 138.875 63.0582L136.927 65.0472L136.236 66.8805C135.445 68.9818 135.098 69.642 134.184 70.7946C133.5 71.6569 123.445 81.9105 123.374 81.8188C123.351 81.7899 123.197 81.5254 123.031 81.231C122.757 80.7435 121.852 79.979 121.549 79.979C121.486 79.979 121.922 79.4732 122.518 78.8548C123.84 77.4847 124.123 76.9729 124.135 75.9354C124.142 75.3097 124.084 75.0589 123.8 74.4941C123.477 73.8496 123.199 73.5865 122.223 73.0031C122.045 72.8968 122.044 72.8545 122.207 72.4591C122.765 71.1088 122.087 69.3834 120.721 68.6773C120.038 68.3239 118.793 68.2817 118.225 68.5927C117.876 68.7841 117.867 68.7828 117.805 68.532C117.688 68.0634 117.03 67.2881 116.474 66.9654L115.924 66.6467L116.7 65.865L117.475 65.0834L118.044 65.4988C118.739 66.006 119.845 66.5208 120.682 66.7262C121.633 66.9596 123.2 66.9031 124.143 66.6014C126.058 65.9887 126.769 65.2528 126.125 64.5501C125.821 64.2191 125.371 64.229 124.753 64.5801C123.666 65.197 122.128 65.3799 120.856 65.0434C119.992 64.8146 119.23 64.3882 118.455 63.6986C118.025 63.316 117.732 63.1447 117.51 63.1447C117.333 63.1447 115.39 63.5597 113.192 64.0671C110.994 64.5744 109.097 64.9895 108.976 64.9895C108.365 64.9895 107.745 64.3211 107.745 63.6635C107.745 62.9059 107.812 62.8609 113.271 59.9436C116.13 58.4153 118.78 57.0634 119.159 56.9391C119.538 56.8149 121.428 56.3946 123.358 56.0051C125.288 55.6155 127 55.2336 127.164 55.1563C127.327 55.079 128.284 54.1503 129.291 53.0926C130.849 51.4569 131.123 51.1165 131.123 50.8153C131.123 50.3533 130.769 50 130.308 50C129.994 50 129.716 50.2331 128.178 51.7851Z"/>
	</symbol>
	<symbol viewBox="0 0 230 230" xmlns="http://www.w3.org/2000/svg" id="love">
		<path d="M81.3281 161.294C80.3161 161.866 79.2161 162.262 77.8081 162.262C74.7281 162.262 72.8141 160.04 72.8141 156.85C72.8141 153.836 74.6621 151.328 77.9181 151.328C79.3481 151.328 80.5141 151.68 81.5921 152.252V150.096C80.7561 149.7 79.4361 149.37 77.8741 149.37C73.3421 149.37 70.3501 152.714 70.3501 156.916C70.3501 161.162 72.9461 164.22 77.5441 164.22C78.9521 164.22 80.4481 163.956 81.9661 163.12L81.3281 161.294ZM88.3359 164.22C91.3719 164.22 93.3959 161.866 93.3959 158.764C93.3959 155.662 91.3719 153.33 88.3359 153.33C85.2779 153.33 83.2539 155.662 83.2539 158.764C83.2539 161.866 85.2999 164.22 88.3359 164.22ZM88.3359 162.35C86.5979 162.35 85.6079 160.854 85.6079 158.764C85.6079 156.696 86.5979 155.2 88.3359 155.2C90.0739 155.2 91.0419 156.696 91.0419 158.764C91.0419 160.854 90.0739 162.35 88.3359 162.35ZM95.5119 164H97.7999V156.586C98.6359 155.882 99.5819 155.332 100.55 155.332C101.936 155.332 102.244 156.432 102.244 157.796V164H104.532V157.07C104.532 154.21 102.926 153.33 101.276 153.33C99.9779 153.33 98.7899 153.924 97.6899 154.826L97.4479 153.594H95.5119V164ZM107.927 164H110.215V155.398H112.327L112.899 153.594H110.215V151.988C110.215 150.976 110.633 150.404 111.557 150.404C111.975 150.404 112.393 150.514 112.811 150.668L113.273 148.842C112.635 148.556 111.909 148.424 111.271 148.424C109.379 148.424 107.927 149.546 107.927 152.032V153.594H106.431V155.398H107.927V164ZM114.549 164H116.837V153.594H114.549V164ZM115.693 151.68C116.507 151.68 117.123 151.064 117.123 150.272C117.123 149.458 116.529 148.864 115.693 148.864C114.857 148.864 114.263 149.48 114.263 150.272C114.263 151.064 114.857 151.68 115.693 151.68ZM125.823 164H127.781C127.627 163.45 127.583 162.548 127.583 161.052V157.048C127.583 154.518 126.131 153.33 123.557 153.33C122.193 153.33 120.873 153.66 119.641 154.364L120.433 155.882C121.159 155.464 122.105 155.112 123.205 155.112C124.437 155.112 125.295 155.684 125.295 157.048V157.488L123.425 157.554C122.369 157.598 121.489 157.73 120.763 158.104C119.707 158.632 119.025 159.534 119.025 160.92C119.025 162.922 120.455 164.22 122.413 164.22C123.711 164.22 124.679 163.67 125.449 162.944L125.823 164ZM125.295 159.05V161.404C124.877 161.778 124.085 162.394 123.029 162.394C121.995 162.394 121.335 161.778 121.335 160.788C121.335 160.194 121.577 159.732 122.061 159.468C122.457 159.248 122.985 159.138 123.733 159.116L125.295 159.05ZM130.166 164H132.454V156.586C133.29 155.882 134.236 155.332 135.204 155.332C136.59 155.332 136.898 156.432 136.898 157.796V164H139.186V157.07C139.186 154.21 137.58 153.33 135.93 153.33C134.632 153.33 133.444 153.924 132.344 154.826L132.102 153.594H130.166V164ZM146.432 164.22C147.796 164.22 149.072 163.78 149.864 163.23L149.204 161.646C148.478 162.042 147.752 162.35 146.74 162.35C144.848 162.35 143.616 161.074 143.616 158.808C143.616 156.74 144.848 155.2 146.872 155.2C147.884 155.2 148.676 155.486 149.402 155.97V154.012C148.808 153.66 147.884 153.33 146.652 153.33C143.528 153.33 141.262 155.706 141.262 158.874C141.262 161.866 143.11 164.22 146.432 164.22ZM159.993 159.358V158.808C159.993 155.442 158.365 153.33 155.527 153.33C152.711 153.33 150.973 155.618 150.973 158.764C150.973 161.646 152.535 164.22 156.165 164.22C157.397 164.22 158.695 163.912 159.707 163.252L159.025 161.69C158.277 162.108 157.441 162.394 156.407 162.394C154.515 162.394 153.349 161.14 153.305 159.358H159.993ZM153.283 157.73C153.305 156.322 154.119 155.112 155.505 155.112C156.979 155.112 157.617 156.41 157.661 157.73H153.283Z"/>
		<path fill-rule="evenodd" clip-rule="evenodd" d="M138.073 69.3086C137.068 70.0287 136.144 70.6185 136.018 70.6192C135.892 70.62 132.99 70.3566 129.568 70.0338C122.789 69.3943 122.413 69.3904 121.315 69.9502C120.696 70.2652 102.709 83.9603 102.143 84.5467C101.582 85.1282 101.562 85.642 102.07 86.409C103.044 87.8795 105.176 88.7933 106.814 88.4422C107.278 88.3426 110.123 87.1166 117.882 83.6731C117.953 83.6417 118.046 83.7572 118.089 83.9297C118.211 84.4162 118.577 84.8565 119.126 85.1783C119.606 85.4595 119.898 85.4978 125.814 86.055C132.535 86.6881 132.793 86.6909 134.068 86.1445C134.364 86.0175 136.247 84.8045 138.252 83.4491C141.077 81.5392 141.914 80.9193 141.97 80.6933C142.145 79.9971 141.517 79.3504 140.902 79.5925C140.727 79.6613 139.026 80.7743 137.121 82.0657C135.217 83.357 133.422 84.4941 133.134 84.5924C132.846 84.6906 132.292 84.771 131.904 84.771C130.85 84.771 120.305 83.7615 120.008 83.6322C119.648 83.4756 119.68 83.1024 120.125 82.2413C120.415 81.6816 120.642 81.4198 121.131 81.0834C122.159 80.3768 122.596 80.3512 126.771 80.7529C129.881 81.0519 130.348 81.0737 130.622 80.9326C131.155 80.6585 131.204 79.8658 130.71 79.5083C130.48 79.3423 129.807 79.2436 127.285 79.006C122.701 78.574 122.032 78.6001 120.727 79.2612C119.961 79.6495 119.426 80.094 118.907 80.7749C118.338 81.5215 118.021 81.6845 111.797 84.4335C106.197 86.9073 106.145 86.9234 105.011 86.5369C104.484 86.3575 103.619 85.7286 103.679 85.5688C103.748 85.384 121.767 71.7164 122.205 71.5163C122.467 71.3968 122.93 71.3064 123.29 71.3047C123.635 71.3031 126.691 71.5628 130.082 71.8818C134.906 72.3358 136.333 72.4358 136.648 72.3421C137.038 72.2258 140.153 70.083 140.784 69.4971C141.185 69.1243 141.206 68.5908 140.833 68.2408C140.344 67.781 140.039 67.8989 138.073 69.3086ZM107.308 89.8546C104.895 90.5284 103.518 92.7271 103.851 95.3716C104.25 98.5271 106.691 101.585 110.596 103.819C111.157 104.14 111.727 104.403 111.863 104.403C112.569 104.403 115.141 102.714 116.671 101.245C119.046 98.9659 120.05 96.8426 119.959 94.2949C119.923 93.2822 119.875 93.0602 119.555 92.4105C118.605 90.4802 116.453 89.3808 114.431 89.7931C113.676 89.9472 112.592 90.4778 112.216 90.8782L111.967 91.1431L111.379 90.6955C110.232 89.8233 108.616 89.4895 107.308 89.8546ZM109.56 91.6799C110.169 91.9341 110.702 92.3731 111.027 92.8884C111.184 93.1369 111.448 93.392 111.614 93.4551C112.017 93.6082 112.519 93.3972 112.732 92.986C112.989 92.4889 113.879 91.7771 114.44 91.6202C115.459 91.3346 116.659 91.6274 117.366 92.3341C117.993 92.9604 118.206 93.5176 118.207 94.5298C118.208 96.3998 117.476 97.8846 115.641 99.7311C114.503 100.877 112.637 102.267 112.034 102.418C111.43 102.57 108.562 100.408 107.319 98.8617C105.04 96.0291 104.996 92.9072 107.219 91.7994C107.913 91.4537 108.899 91.4035 109.56 91.6799ZM121.577 102.736C121.169 102.884 118.678 103.965 116.041 105.138C113.404 106.312 111.189 107.297 111.118 107.328C111.047 107.359 110.953 107.24 110.909 107.063C110.788 106.579 110.318 106.027 109.803 105.764C109.322 105.519 109.036 105.486 100.354 104.676C96.7038 104.336 96.097 104.356 94.9278 104.857C94.629 104.985 92.7463 106.198 90.744 107.552C87.9164 109.463 87.0867 110.079 87.0298 110.306C86.8548 111.003 87.4821 111.65 88.0978 111.407C88.2728 111.339 89.9742 110.226 91.8788 108.934C93.7833 107.643 95.5775 106.506 95.8659 106.408C96.1543 106.309 96.7065 106.229 97.093 106.229C98.1834 106.229 108.797 107.251 109.036 107.379C109.34 107.541 109.3 107.916 108.893 108.731C108.375 109.768 107.453 110.387 106.236 110.515C105.916 110.549 104.087 110.426 102.172 110.242C100.063 110.04 98.5925 109.946 98.4406 110.003C97.8782 110.217 97.7862 111.128 98.2903 111.491C98.5079 111.647 99.0495 111.74 100.573 111.882C104.988 112.294 105.854 112.348 106.586 112.26C107.901 112.102 109.235 111.335 110.064 110.26C110.673 109.472 110.917 109.345 117.204 106.568C122.704 104.138 122.8 104.106 123.886 104.408C124.35 104.537 125.287 105.196 125.287 105.394C125.287 105.566 107.356 119.229 106.795 119.484C106.539 119.601 106.07 119.693 105.729 119.695C105.394 119.696 102.338 119.436 98.937 119.118C94.0687 118.661 92.6689 118.563 92.3543 118.659C91.9578 118.779 88.8181 120.935 88.2163 121.5C87.8153 121.876 87.7941 122.409 88.1665 122.759C88.656 123.219 88.9608 123.101 90.9271 121.691C92.1743 120.797 92.8507 120.382 93.0608 120.382C93.2301 120.382 96.1069 120.643 99.4538 120.961C103.261 121.323 105.771 121.514 106.158 121.472C107.459 121.327 107.661 121.189 117.246 113.887C122.296 110.039 126.601 106.722 126.812 106.517C127.383 105.961 127.425 105.326 126.939 104.6C126.507 103.953 125.846 103.389 125.054 102.992C123.878 102.401 122.734 102.317 121.577 102.736Z"/>
	</symbol>
	<symbol viewBox="0 0 230 230" xmlns="http://www.w3.org/2000/svg" id="chat">
		<path d="M85.4798 164H93.2238V162.042H87.7898V157.598H92.4758V155.64H87.7898V151.46H92.4978L93.1578 149.502H85.4798V164ZM88.0098 148.688H89.7478L91.7938 145.454H89.2858L88.0098 148.688ZM100.444 164.22C101.808 164.22 103.084 163.78 103.876 163.23L103.216 161.646C102.49 162.042 101.764 162.35 100.752 162.35C98.8604 162.35 97.6284 161.074 97.6284 158.808C97.6284 156.74 98.8604 155.2 100.884 155.2C101.896 155.2 102.688 155.486 103.414 155.97V154.012C102.82 153.66 101.896 153.33 100.664 153.33C97.5404 153.33 95.2744 155.706 95.2744 158.874C95.2744 161.866 97.1224 164.22 100.444 164.22ZM110.046 164.22C113.082 164.22 115.106 161.866 115.106 158.764C115.106 155.662 113.082 153.33 110.046 153.33C106.988 153.33 104.964 155.662 104.964 158.764C104.964 161.866 107.01 164.22 110.046 164.22ZM110.046 162.35C108.308 162.35 107.318 160.854 107.318 158.764C107.318 156.696 108.308 155.2 110.046 155.2C111.784 155.2 112.752 156.696 112.752 158.764C112.752 160.854 111.784 162.35 110.046 162.35ZM120.544 164.22C121.908 164.22 123.008 163.626 123.844 162.878L124.218 164H126.198C126.044 163.45 126 162.548 126 161.118V153.594H123.712V161.14C123.206 161.734 122.304 162.24 121.314 162.24C120.5 162.24 119.972 161.91 119.708 161.228C119.554 160.854 119.51 160.414 119.51 159.82V153.594H117.222V160.128C117.222 161.052 117.31 161.646 117.53 162.218C118.124 163.802 119.532 164.22 120.544 164.22ZM132.476 164.22C133.51 164.22 134.654 163.912 135.38 163.406L134.654 161.822C134.236 162.108 133.664 162.35 133.026 162.35C132.344 162.35 131.992 161.976 131.992 161.03V155.398H134.544L135.116 153.594H131.992V150.492L129.704 151.196V153.594H127.878V155.398H129.704V161.536C129.704 163.23 130.738 164.22 132.476 164.22ZM145.523 159.358V158.808C145.523 155.442 143.895 153.33 141.057 153.33C138.241 153.33 136.503 155.618 136.503 158.764C136.503 161.646 138.065 164.22 141.695 164.22C142.927 164.22 144.225 163.912 145.237 163.252L144.555 161.69C143.807 162.108 142.971 162.394 141.937 162.394C140.045 162.394 138.879 161.14 138.835 159.358H145.523ZM138.813 157.73C138.835 156.322 139.649 155.112 141.035 155.112C142.509 155.112 143.147 156.41 143.191 157.73H138.813Z"/>
		<path fill-rule="evenodd" clip-rule="evenodd" d="M105.195 70.216C102.149 71.0347 99.6975 73.8039 99.3906 76.7716L99.3135 77.517H97.0902C93.7248 77.517 92.1557 78.0492 90.3944 79.7887C89.2481 80.9205 88.6374 81.9706 88.2617 83.4556C87.9882 84.5365 87.9768 84.9554 88.0175 92.4471L88.0599 100.305L88.4394 101.282C89.6223 104.327 92.587 106.481 95.5956 106.481H96.2279V110.366C96.2279 114.082 96.2407 114.268 96.5224 114.626C96.7353 114.897 96.9479 115 97.2912 115C97.7222 115 98.1611 114.611 102.095 110.741L106.425 106.481H114.65C123.535 106.481 123.697 106.469 125.279 105.702C125.67 105.513 126.373 105.044 126.842 104.661L127.695 103.964L129.483 105.719C131.443 107.644 131.799 107.817 132.429 107.146C132.731 106.825 132.738 106.727 132.738 102.887V98.9561H133.37C136.66 98.9561 139.983 96.2684 140.759 92.9797C141.083 91.6036 141.079 77.1704 140.754 75.916C140.043 73.1723 137.795 70.9218 135.061 70.217C134.292 70.0186 132.516 69.9931 120.074 70.0013C108.23 70.0091 105.836 70.0436 105.195 70.216ZM135.153 72.3721C136.755 73.0315 137.937 74.2125 138.595 75.8132C138.913 76.5847 138.917 76.6825 138.96 83.9734C139.009 92.3717 138.975 92.7368 138.008 94.2324C136.794 96.109 134.964 96.9641 132.156 96.9672C130.665 96.969 130.687 96.9151 130.635 100.772L130.591 103.979L127.118 100.509L123.644 97.0394L114.872 96.9631C105.148 96.8785 105.456 96.9082 103.958 95.9139C103.021 95.2924 102.179 94.2487 101.743 93.1707C101.415 92.3581 101.413 92.3171 101.369 84.971C101.338 79.8234 101.374 77.33 101.488 76.7361C101.924 74.4608 103.786 72.5834 106.055 72.1296C106.393 72.062 112.902 72.0166 120.52 72.0287L134.371 72.0507L135.153 72.3721ZM99.3547 86.2488C99.4342 93.5739 99.3859 93.1556 100.367 94.9948C101.296 96.7377 103.53 98.3689 105.575 98.7981C106.078 98.9036 109.034 98.9561 114.456 98.9561H122.585L124.353 100.727L126.121 102.499L125.701 102.936C125.165 103.496 123.792 104.168 122.81 104.351C122.354 104.436 118.706 104.495 113.789 104.496L105.533 104.499L101.946 107.988L98.3588 111.476V108.359C98.3588 104.385 98.4523 104.56 96.2675 104.461C94.452 104.379 93.4208 104.058 92.3262 103.232C91.4789 102.592 90.8247 101.682 90.4025 100.554C90.1212 99.8028 90.1136 99.5364 90.1514 91.8071L90.1903 83.8351L90.6281 82.9118C91.1859 81.7355 92.205 80.7132 93.3568 80.1744C94.4797 79.6494 95.2735 79.531 97.5065 79.5559L99.2822 79.5757L99.3547 86.2488Z"/>
	</symbol>
	<symbol viewBox="0 0 211 211" xmlns="http://www.w3.org/2000/svg" id="logotype-l">
		<path d="M105.52 61.2081C109 61.1075 111.739 58.2049 111.639 54.7249C111.538 51.245 108.635 48.5054 105.155 48.606C101.675 48.7066 98.9358 51.6092 99.0364 55.0892C99.137 58.5691 102.04 61.3087 105.52 61.2081Z"/>
		<path d="M102.019 62.5342C101.853 64.0271 101.853 65.5201 101.687 67.6766C104.673 66.0177 106.995 65.0224 108.82 64.3589C108.82 63.5295 108.654 63.1977 108.654 62.5342C107.659 63.0318 106.497 63.1977 105.336 63.1977C104.175 63.1977 103.014 63.0318 102.019 62.5342Z"/>
		<path d="M120.266 103.341C119.602 100.023 117.612 98.5304 116.119 97.3692C113.631 95.3786 111.142 94.2174 108.986 92.8903C109.152 84.5961 109.318 79.2878 109.152 74.3113C106.497 74.9749 104.341 76.1361 101.521 78.2925C101.521 81.6102 101.521 84.0985 101.521 88.4115C101.189 88.0797 100.692 87.9138 100.36 87.582C98.5351 86.0891 97.3739 84.5961 97.208 83.4349C97.0421 82.2738 97.208 80.6149 98.2033 79.122C99.1986 77.629 102.516 75.1407 105.005 73.6478C107.493 72.1548 110.976 71.4913 113.133 71.4913C115.289 71.4913 118.939 70.6619 118.607 69.1689C118.275 67.8419 113.796 65.1877 110.81 65.6854C107.825 66.183 104.673 67.676 98.5351 71.1595C97.0421 72.1548 95.5492 73.1501 93.8903 74.809C92.3974 76.4678 90.7385 78.6243 90.4068 81.7761C90.075 84.9279 91.568 88.0797 93.5586 90.0703C95.5492 92.0609 97.8715 93.5539 100.194 94.8809C100.526 95.0468 100.857 95.2127 101.355 95.5445C101.355 100.023 101.687 109.976 101.687 110.308C101.853 110.308 107.161 107.82 107.99 107.488C108.156 104.17 108.156 102.014 108.322 99.1939C110.479 100.355 112.801 101.682 114.128 103.175C114.792 104.005 114.792 104.336 114.626 105C114.294 105.663 113.299 106.659 111.972 107.322C109.318 108.981 106 110.142 102.516 111.801C101.023 112.631 98.8668 113.294 96.2127 115.948C95.5492 116.612 94.8856 117.607 94.5539 118.934C94.2221 120.261 94.388 121.422 94.7197 122.584C95.5492 124.906 97.208 126.399 98.8668 127.56C99.8621 128.389 101.023 129.053 102.185 129.717C102.185 132.205 102.35 134.195 102.35 136.518C103.512 136.186 106.995 135.357 106.995 135.357C106.995 134.195 106.995 133.532 107.161 132.371C107.99 132.702 108.654 133.2 109.483 133.698C110.313 134.195 111.142 134.693 111.64 135.191C111.972 135.357 111.972 135.522 111.972 135.688C111.972 135.854 110.976 136.02 110.147 136.352C109.318 136.684 108.322 136.85 107.161 137.015C105.17 137.513 103.014 137.845 101.023 138.674C100.028 139.006 98.8668 139.504 98.0374 140.499C97.0421 141.328 96.3786 142.821 96.3786 144.148C96.5445 146.637 97.8715 148.461 99.0327 149.788C100.194 151.116 101.521 152.111 102.848 153.106C103.014 153.272 103.18 153.272 103.346 153.438C103.843 159.41 104.341 162.727 105.005 162.727C105.668 162.727 106 159.907 106.332 155.263C109.483 157.087 111.474 157.751 111.64 157.585C111.806 157.253 109.649 155.926 106.497 153.438C106.663 150.286 106.829 147.3 106.995 142.655C106.663 142.655 103.677 143.319 102.848 143.485C103.014 146.471 103.18 148.13 103.18 150.452C101.687 148.959 100.194 147.3 99.5304 145.31C99.1986 143.817 99.3645 143.319 100.692 142.49C102.019 141.826 103.843 141.328 105.668 140.997C107.659 140.665 109.649 140.499 111.806 139.835C112.967 139.504 114.294 139.338 115.621 137.513C116.285 136.518 116.285 135.191 115.953 134.195C115.621 133.2 115.123 132.702 114.626 132.205C112.635 130.38 110.81 129.551 109.152 128.389C108.654 128.058 108.156 127.892 107.659 127.56C107.825 123.911 107.99 121.256 108.156 117.275C106.663 117.773 103.346 119.432 102.35 120.095C102.35 120.095 102.35 122.418 102.516 124.242C101.687 123.579 101.023 123.081 100.692 122.418C99.8621 121.422 99.6963 120.427 99.8621 120.095C100.028 119.598 100.857 118.768 102.019 118.105C103.014 117.441 104.175 116.943 105.17 116.446C108.986 114.621 112.967 113.46 116.782 110.806C117.778 110.142 118.773 109.313 119.436 107.986C120.1 106.493 120.598 105 120.266 103.341Z"/>
		<path d="M60.5476 51.9165L57.5617 54.5706L40.8074 46.1105L54.9075 61.8695L51.7557 64.6895L33.1768 43.4564L37.3239 39.8069L55.737 49.2623L48.7698 29.688L52.9169 26.0386L71.4959 47.2717L68.3441 50.2576L54.5758 34.1669L60.5476 51.9165Z"/>
		<path d="M75.8088 25.5403C81.9465 23.2179 84.6007 26.8674 86.4254 31.8439C86.5913 32.5074 86.7572 33.0051 86.9231 33.6686L75.9747 37.8157C76.97 40.4699 78.6289 41.7969 82.2783 40.4699C84.4348 39.6404 86.2595 38.4793 87.4207 37.3181L88.7478 40.6357C87.089 42.2946 84.9325 43.2899 82.9419 44.1193C77.1359 46.2758 73.6524 43.6217 71.4959 37.9816C69.3394 32.0098 70.1688 27.6968 75.8088 25.5403ZM74.9794 34.8298L81.9466 32.1757C81.1171 29.8533 80.1218 27.6968 76.97 28.858C74.3159 30.0192 74.15 32.1757 74.9794 34.8298Z"/>
		<path d="M104.341 21.5598L103.677 11.1091L107.824 10.7773L109.649 38.9776L107.161 39.1435L106.331 37.6505C104.839 38.9776 102.848 39.807 100.36 39.9729C94.8855 40.3047 92.5631 36.8211 92.2314 30.6834C91.8996 24.5457 93.5584 20.7304 99.0326 20.3986C101.189 20.2327 103.014 20.7304 104.341 21.5598ZM96.7102 30.3516C96.8761 33.8352 97.7055 36.6552 101.355 36.3235C103.346 36.1576 104.673 35.494 105.336 34.9964L104.673 24.7116C103.843 24.3798 102.516 23.7163 100.526 23.8822C96.8761 24.0481 96.3784 27.034 96.7102 30.3516Z"/>
		<path d="M115.621 35.3278L117.943 21.3935L122.09 22.0571L119.768 35.9913C119.602 36.9866 119.934 37.4843 121.095 37.6502L120.597 40.9678C120.597 40.9678 120.266 40.9678 119.768 40.9678C116.284 40.4702 115.123 38.4796 115.621 35.3278ZM121.427 13.4311C122.92 13.597 123.915 15.09 123.749 16.5829C123.583 18.0759 122.09 19.0712 120.597 18.9053C119.104 18.7394 118.109 17.2464 118.275 15.7535C118.441 14.2605 119.934 13.2652 121.427 13.4311Z"/>
		<path d="M133.702 41.6315C135.693 42.461 137.186 42.6269 138.679 42.6269L137.352 45.9445C135.693 45.9445 134.034 45.6128 132.209 44.9492C126.072 42.461 125.574 38.148 127.731 32.6738C129.887 27.1997 133.205 24.2137 139.342 26.702C141.167 27.3655 142.66 28.3608 143.821 29.522L142.494 32.8397C141.499 31.8444 140.172 31.015 138.181 30.1856C134.864 28.8585 132.873 30.8491 131.546 34.1668C130.219 37.6503 130.385 40.3045 133.702 41.6315Z"/>
		<path d="M155.267 39.9731C153.277 38.4801 151.452 37.8166 149.959 37.3189L152.115 34.333C153.608 34.6648 155.931 35.826 157.756 37.153C162.732 40.8025 162.234 43.7884 159.912 47.1061L152.447 57.225L150.457 55.732L150.788 54.0732C148.798 54.2391 146.641 53.4096 144.982 52.2485C141.167 49.2625 141.665 45.9449 143.324 43.6225C145.812 40.3048 148.964 40.6366 152.447 42.7931L156.097 45.1155L156.594 44.286C157.921 42.6272 157.59 41.6319 155.267 39.9731ZM150.954 45.2813C149.295 44.286 147.968 44.286 146.807 45.779C145.978 46.9402 145.646 48.4331 147.471 49.7602C148.798 50.7555 150.125 51.0873 151.452 51.2532L154.438 47.2719L150.954 45.2813Z"/>
		<path d="M159.248 58.0546L177.164 42.6274L179.984 45.7792L161.903 61.2064C161.073 61.87 161.073 62.3676 161.903 63.3629L159.248 65.5194C159.248 65.5194 158.917 65.3535 158.585 65.0218C156.428 62.3676 156.76 60.2111 159.248 58.0546Z"/>
		<path d="M74.4819 162.562C77.3019 164.386 78.629 165.879 79.4584 167.04L77.3019 170.524C75.9749 168.699 74.8137 167.372 72.6572 166.045C68.0124 163.225 64.363 165.216 60.7136 171.022C57.0641 176.828 56.8982 181.141 61.543 183.961C63.6995 185.288 65.3583 185.785 67.6807 186.283L65.5242 189.767C64.0312 189.601 62.0406 189.103 59.2206 187.278C52.0876 182.799 52.0876 176.662 57.0641 168.699C61.7089 160.903 67.3489 158.083 74.4819 162.562Z"/>
		<path d="M78.1314 190.43L84.9326 167.87L88.9138 169.031L82.2785 191.592C81.9467 192.587 82.2785 193.084 83.4397 193.416L82.4444 196.734C82.4444 196.734 82.1126 196.734 81.6149 196.568C78.2973 195.573 77.302 193.416 78.1314 190.43Z"/>
		<path d="M93.0609 193.913L94.7197 179.813L98.8668 180.311L97.2079 194.411C97.0421 195.406 97.3738 195.904 98.535 196.07L98.2032 199.387C98.2032 199.387 97.8715 199.387 97.3738 199.387C94.0562 198.89 92.7291 197.065 93.0609 193.913ZM97.8715 171.851C99.3644 172.016 100.526 173.344 100.194 174.836C100.028 176.329 98.7009 177.491 97.2079 177.159C95.715 176.993 94.5538 175.666 94.8856 174.173C95.0515 172.68 96.3785 171.685 97.8715 171.851Z"/>
		<path d="M121.095 198.393L119.602 185.62C119.436 183.795 118.275 182.965 116.285 183.297C114.294 183.463 113.133 184.293 112.138 184.956L113.962 199.388L109.815 199.886L107.493 181.141L109.981 180.809L110.81 182.302C112.635 180.809 114.626 179.814 116.616 179.648C121.427 179.15 123.252 181.141 123.749 184.79L125.408 197.895L121.095 198.393Z"/>
		<path d="M129.39 168.035C130.717 167.538 132.375 168.201 132.873 169.528C133.371 170.855 132.707 172.514 131.38 173.012C130.053 173.51 128.394 172.846 127.897 171.519C127.233 170.192 127.897 168.699 129.39 168.035ZM135.527 189.766L130.385 176.495L134.366 175.002L139.508 188.273C139.84 189.268 140.338 189.434 141.499 189.103L142.66 192.254C142.66 192.254 142.328 192.42 141.997 192.586C138.679 193.913 136.688 192.918 135.527 189.766Z"/>
		<path d="M157.756 179.813C159.58 178.652 160.576 177.491 161.405 176.33L163.396 179.316C162.566 180.643 161.239 181.97 159.58 182.965C154.106 186.615 150.125 184.458 146.807 179.648C143.49 174.837 142.992 170.358 148.466 166.543C150.125 165.382 151.784 164.718 153.277 164.386L155.267 167.372C153.774 167.704 152.447 168.202 150.623 169.363C147.637 171.353 148.134 174.007 150.125 177.159C152.115 180.311 154.604 181.804 157.756 179.813Z"/>
	</symbol>

</svg>
